<svg width="111" height="32" viewBox="0 0 111 32" fill="none" xmlns="http://www.w3.org/2000/svg">
<path fill-rule="evenodd" clip-rule="evenodd" d="M7.12851 27.1586C9.36754 29.5206 12.5323 31 16.025 31C19.3462 31 22.3709 29.6623 24.5851 27.5H21.6762C21.6089 27.5 21.5438 27.4911 21.4787 27.4821L21.4786 27.4821C21.4524 27.4785 21.4263 27.4749 21.3999 27.4719C21.3737 27.4749 21.3476 27.4785 21.3215 27.4821L21.3214 27.4821L21.3212 27.4821C21.2561 27.4911 21.191 27.5 21.1236 27.5C19.756 27.5 18.637 26.3828 18.637 25.0173C18.637 23.6518 19.756 22.5345 21.1236 22.5345C21.1893 22.5345 21.2528 22.5431 21.3163 22.5516L21.3164 22.5516C21.3442 22.5553 21.372 22.5591 21.3999 22.5621H21.4027C21.4027 22.5574 21.402 22.5529 21.4013 22.5483C21.4006 22.5438 21.3999 22.5392 21.3999 22.5345C21.3999 21.0173 22.6432 19.7759 24.1628 19.7759C25.6824 19.7759 26.9257 21.0173 26.9257 22.5345C26.9257 22.5632 26.9219 22.5908 26.918 22.6184C26.915 22.6397 26.912 22.6611 26.9108 22.6829C27.1303 22.76 27.3349 22.8681 27.5217 22.9997C28.0154 21.6767 28.2855 20.2475 28.2855 18.7586V13.2414C28.2855 6.5109 22.766 1 16.025 1C9.28402 1 3.76453 6.5109 3.76453 13.2414V18.7185L15.6772 14.2069L16.7823 12H17.3348V15.862L7.12851 27.1586ZM11.0418 10.5821C11.0428 10.568 11.0446 10.5543 11.0465 10.5406C11.0491 10.5216 11.0517 10.5027 11.0517 10.4828C11.0517 9.56855 10.3096 8.82759 9.39398 8.82759C8.47834 8.82759 7.73623 9.56855 7.73623 10.4828H7.18364C6.27188 10.4828 5.52589 11.2276 5.52589 12.1379C5.52589 13.0483 6.27188 13.7931 7.18364 13.7931H10.4992C11.4109 13.7931 12.1569 13.0483 12.1569 12.1379C12.1569 11.4179 11.6877 10.8083 11.0418 10.5821Z" fill="white"/>
<path d="M45.6516 12.456C46.4208 12.456 47.1059 12.618 47.7068 12.942C48.3077 13.254 48.7825 13.728 49.131 14.364C49.4796 15 49.6538 15.774 49.6538 16.686V22.5H48.0313V16.92C48.0313 15.936 47.7849 15.186 47.2922 14.67C46.8114 14.142 46.1564 13.878 45.3271 13.878C44.4738 13.878 43.7947 14.154 43.2899 14.706C42.7851 15.246 42.5327 16.032 42.5327 17.064V22.5H40.9102V16.92C40.9102 15.936 40.6638 15.186 40.1711 14.67C39.6903 14.142 39.0353 13.878 38.206 13.878C37.3527 13.878 36.6736 14.154 36.1688 14.706C35.6641 15.246 35.4117 16.032 35.4117 17.064V22.5H33.7711V12.636H35.4117V14.058C35.7362 13.542 36.1688 13.146 36.7097 12.87C37.2625 12.594 37.8695 12.456 38.5305 12.456C39.3598 12.456 40.093 12.642 40.7299 13.014C41.3669 13.386 41.8417 13.932 42.1542 14.652C42.4306 13.956 42.8873 13.416 43.5243 13.032C44.1613 12.648 44.8704 12.456 45.6516 12.456ZM61.3589 17.19C61.3589 17.502 61.3409 17.832 61.3049 18.18H53.4086C53.4687 19.152 53.7992 19.914 54.4001 20.466C55.0131 21.006 55.7522 21.276 56.6176 21.276C57.3267 21.276 57.9156 21.114 58.3843 20.79C58.8651 20.454 59.2016 20.01 59.3939 19.458H61.1606C60.8962 20.406 60.3674 21.18 59.5742 21.78C58.7809 22.368 57.7954 22.662 56.6176 22.662C55.6801 22.662 54.8388 22.452 54.0936 22.032C53.3605 21.612 52.7836 21.018 52.3629 20.25C51.9423 19.47 51.732 18.57 51.732 17.55C51.732 16.53 51.9363 15.636 52.3449 14.868C52.7536 14.1 53.3244 13.512 54.0576 13.104C54.8027 12.684 55.6561 12.474 56.6176 12.474C57.555 12.474 58.3843 12.678 59.1054 13.086C59.8266 13.494 60.3794 14.058 60.764 14.778C61.1606 15.486 61.3589 16.29 61.3589 17.19ZM59.6643 16.848C59.6643 16.224 59.5261 15.69 59.2497 15.246C58.9732 14.79 58.5946 14.448 58.1139 14.22C57.6452 13.98 57.1224 13.86 56.5455 13.86C55.7162 13.86 55.0071 14.124 54.4181 14.652C53.8412 15.18 53.5107 15.912 53.4266 16.848H59.6643ZM66.3368 9.18V22.5H63.254V9.18H66.3368ZM78.0536 17.316C78.0536 17.604 78.0356 17.904 77.9995 18.216H71.0227C71.0708 18.84 71.2691 19.32 71.6176 19.656C71.9782 19.98 72.4169 20.142 72.9337 20.142C73.7029 20.142 74.2377 19.818 74.5381 19.17H77.8193C77.651 19.83 77.3445 20.424 76.8998 20.952C76.4672 21.48 75.9203 21.894 75.2593 22.194C74.5982 22.494 73.8591 22.644 73.0418 22.644C72.0563 22.644 71.1789 22.434 70.4097 22.014C69.6405 21.594 69.0396 20.994 68.6069 20.214C68.1743 19.434 67.9579 18.522 67.9579 17.478C67.9579 16.434 68.1682 15.522 68.5889 14.742C69.0216 13.962 69.6225 13.362 70.3917 12.942C71.1609 12.522 72.0443 12.312 73.0418 12.312C74.0153 12.312 74.8807 12.516 75.6379 12.924C76.395 13.332 76.984 13.914 77.4046 14.67C77.8373 15.426 78.0536 16.308 78.0536 17.316ZM74.8987 16.506C74.8987 15.978 74.7184 15.558 74.3579 15.246C73.9973 14.934 73.5466 14.778 73.0058 14.778C72.489 14.778 72.0503 14.928 71.6897 15.228C71.3412 15.528 71.1248 15.954 71.0407 16.506H74.8987ZM84.205 19.62L86.3864 12.456H89.6675L86.0979 22.5H82.294L78.7245 12.456H82.0236L84.205 19.62ZM90.3522 17.46C90.3522 16.428 90.5445 15.522 90.9291 14.742C91.3257 13.962 91.8605 13.362 92.5336 12.942C93.2066 12.522 93.9578 12.312 94.7871 12.312C95.4962 12.312 96.1151 12.456 96.6439 12.744C97.1848 13.032 97.5994 13.41 97.8879 13.878V12.456H100.971V22.5H97.8879V21.078C97.5874 21.546 97.1668 21.924 96.6259 22.212C96.0971 22.5 95.4781 22.644 94.769 22.644C93.9518 22.644 93.2066 22.434 92.5336 22.014C91.8605 21.582 91.3257 20.976 90.9291 20.196C90.5445 19.404 90.3522 18.492 90.3522 17.46ZM97.8879 17.478C97.8879 16.71 97.6715 16.104 97.2389 15.66C96.8182 15.216 96.3014 14.994 95.6885 14.994C95.0755 14.994 94.5527 15.216 94.12 15.66C93.6994 16.092 93.489 16.692 93.489 17.46C93.489 18.228 93.6994 18.84 94.12 19.296C94.5527 19.74 95.0755 19.962 95.6885 19.962C96.3014 19.962 96.8182 19.74 97.2389 19.296C97.6715 18.852 97.8879 18.246 97.8879 17.478Z" fill="white"/>
</svg>
